<?xml version="1.0" encoding="UTF-8" standalone="no"?><svg xmlns="http://www.w3.org/2000/svg" xmlns:xlink="http://www.w3.org/1999/xlink" fill="#C7B3FC" height="31.8" preserveAspectRatio="xMidYMid meet" version="1" viewBox="4.9 14.1 110.2 31.8" width="110.2" zoomAndPan="magnify">
 <g id="change1_1"><path d="m21.864 27.445c-0.913 0-1.634 0.785-1.634 1.762s0.737 1.762 1.634 1.762c0.913 0 1.634-0.785 1.634-1.762s-0.737-1.762-1.634-1.762zm-5.847 0c-0.913 0-1.634 0.785-1.634 1.762s0.737 1.762 1.634 1.762c0.913 0 1.634-0.785 1.634-1.762 0.016-0.977-0.72-1.762-1.634-1.762zm13.633-13.328h-21.466a3.29 3.29 0 0 0 -3.284 3.284v21.465a3.29 3.29 0 0 0 3.284 3.284h18.166l-0.85-2.93 2.05 1.9 1.938 1.778 3.46 2.996v-28.494c-0.016-1.8-1.5-3.284-3.3-3.284zm-6.183 20.743l-1.067-1.28c2.098-0.593 2.9-1.9 2.9-1.9a9.15 9.15 0 0 1 -1.842 0.945c-0.8 0.336-1.57 0.545-2.323 0.7-1.538 0.288-2.947 0.208-4.15-0.016-0.913-0.176-1.698-0.416-2.355-0.7-0.368-0.144-0.77-0.32-1.17-0.545-0.048-0.032-0.096-0.048-0.144-0.08-0.032-0.016-0.048-0.032-0.064-0.032l-0.45-0.272s0.77 1.265 2.803 1.874l-1.073 1.314c-3.54-0.112-4.886-2.42-4.886-2.42 0-5.1 2.307-9.26 2.307-9.26 2.307-1.714 4.485-1.666 4.485-1.666l0.16 0.192c-2.883 0.817-4.197 2.082-4.197 2.082s0.352-0.192 0.945-0.45c1.714-0.753 3.076-0.945 3.636-1 0.096-0.016 0.176-0.032 0.272-0.032a13.57 13.57 0 0 1 3.236 -0.032c1.522 0.176 3.156 0.625 4.822 1.522 0 0-1.265-1.2-4-2.018l0.224-0.256s2.195-0.048 4.485 1.666 2.307 4.15 2.307 9.26c0-0.016-1.346 2.3-4.886 2.403zm19.267-11.865h-5.238v5.885l3.487 3.14v-5.7h1.862c1.183 0 1.767 0.568 1.767 1.483v4.37c0 0.915-0.552 1.53-1.767 1.53h-5.365v3.33h5.238c2.808 0.016 5.443-1.388 5.443-4.607v-4.7c0.016-3.292-2.621-4.726-5.427-4.726zm27.45 9.42v-4.828c0-1.735 3.124-2.13 4.07-0.394l2.887-1.167c-1.136-2.493-3.203-3.218-4.922-3.218-2.808 0-5.585 1.625-5.585 4.78v4.828c0 3.187 2.777 4.78 5.522 4.78a5.63 5.63 0 0 0 5.048 -3.14l-3.092-1.42c-0.757 1.94-3.928 1.467-3.928-0.22zm-9.544-4.165c-1.1-0.237-1.814-0.63-1.862-1.3 0.063-1.625 2.572-1.688 4.04-0.126l2.32-1.783c-1.45-1.767-3.092-2.24-4.78-2.24-2.572 0-5.064 1.45-5.064 4.197 0 2.666 2.05 4.102 4.307 4.45 1.152 0.158 2.43 0.615 2.398 1.404-0.095 1.5-3.187 1.42-4.6-0.284l-2.24 2.098c1.3 1.688 3.092 2.54 4.765 2.54 2.572 0 5.427-1.483 5.538-4.197 0.158-3.424-2.335-4.3-4.828-4.75zm-10.57 8.756h3.534v-14h-3.534zm59.588-14h-5.238v5.885l3.487 3.14v-5.7h1.862c1.183 0 1.767 0.568 1.767 1.483v4.37c0 0.915-0.552 1.53-1.767 1.53h-5.364v3.33h5.254c2.808 0.016 5.443-1.388 5.443-4.607v-4.7c0-3.282-2.635-4.717-5.443-4.717zm-25.7-0.2c-2.903 0-5.8 1.578-5.8 4.812v4.78c0.008 3.202 2.91 4.802 5.84 4.802 2.903 0 5.8-1.6 5.8-4.812v-4.78c0-3.218-2.92-4.812-5.822-4.812zm2.272 9.592c0 1-1.136 1.53-2.256 1.53-1.136 0-2.272-0.5-2.272-1.53v-4.78c0-1.025 1.104-1.578 2.2-1.578 1.152 0 2.32 0.5 2.32 1.578zm16.234-4.78c-0.08-3.282-2.32-4.607-5.206-4.607h-5.6v14h3.58v-4.45h0.63l3.25 4.45h4.417l-3.82-4.811c1.688-0.536 2.745-2.004 2.745-4.6zm-5.15 1.882h-2.083v-3.203h2.083c2.224 0 2.224 3.203 0 3.203z" fill="inherit"/></g>
</svg>