<?xml version="1.0" encoding="UTF-8" standalone="no"?><svg xmlns="http://www.w3.org/2000/svg" xmlns:xlink="http://www.w3.org/1999/xlink" fill="#000000" height="236.8" preserveAspectRatio="xMidYMid meet" version="1.1" viewBox="99.4 94.2 228.7 236.8" width="228.7" zoomAndPan="magnify">
 <g id="surface1">
  <g id="change1_1"><path d="m164.89 273.11h-36.04v45.67h36.04v-45.67" fill="#8c7eb4"/></g>
  <g id="change2_1"><path d="m164.89 273.11v-2.5h-36.04c-0.66 0-1.31 0.27-1.77 0.73-0.47 0.46-0.74 1.11-0.74 1.77v45.67c0 0.66 0.27 1.3 0.74 1.77 0.46 0.46 1.11 0.73 1.77 0.73h36.04c0.66 0 1.31-0.27 1.77-0.73 0.47-0.47 0.73-1.11 0.73-1.77v-45.67c0-0.66-0.26-1.31-0.73-1.77-0.46-0.46-1.11-0.73-1.77-0.73v2.5h-2.5v43.17h-31.05v-40.67h33.55v-2.5h-2.5 2.5" fill="#0a0a09"/></g>
  <g id="change1_2"><path d="m213.93 248.59h-36.05v70.19h36.05v-70.19" fill="#8c7eb4"/></g>
  <g id="change2_2"><path d="m213.93 248.59v-2.5h-36.05c-0.66 0-1.31 0.27-1.77 0.73-0.47 0.47-0.73 1.11-0.73 1.77v70.19c0 0.66 0.26 1.3 0.73 1.77 0.46 0.46 1.11 0.73 1.77 0.73h36.05c0.66 0 1.3-0.27 1.77-0.73 0.46-0.47 0.73-1.11 0.73-1.77v-70.19c0-0.66-0.27-1.3-0.73-1.77-0.47-0.46-1.11-0.73-1.77-0.73v2.5h-2.5v67.69h-31.05v-65.19h33.55v-2.5h-2.5 2.5" fill="#0a0a09"/></g>
  <g id="change1_3"><path d="m308.62 183.73h-36.05v135.05h36.05v-135.05" fill="#8c7eb4"/></g>
  <g id="change2_3"><path d="m308.62 183.73v-2.5h-36.05c-0.66 0-1.3 0.27-1.77 0.74-0.46 0.46-0.73 1.11-0.73 1.76v135.05c0 0.66 0.27 1.3 0.73 1.77 0.47 0.46 1.11 0.73 1.77 0.73h36.05c0.66 0 1.31-0.27 1.77-0.73 0.47-0.47 0.73-1.11 0.73-1.77v-135.05c0-0.65-0.26-1.3-0.73-1.76-0.46-0.47-1.11-0.74-1.77-0.74v2.5h-2.5v132.55h-31.05v-130.05h33.55v-2.5h-2.5 2.5" fill="#0a0a09"/></g>
  <g id="change1_4"><path d="m261.76 212.54h-36.05v106.24h36.05v-106.24" fill="#8c7eb4"/></g>
  <g id="change2_4"><path d="m261.76 212.54v-2.5h-36.05c-0.66 0-1.3 0.26-1.77 0.73s-0.73 1.11-0.73 1.77v106.24c0 0.66 0.26 1.3 0.73 1.77 0.47 0.46 1.11 0.73 1.77 0.73h36.05c0.65 0 1.3-0.27 1.76-0.73 0.47-0.47 0.74-1.11 0.74-1.77v-106.24c0-0.66-0.27-1.3-0.74-1.77-0.46-0.47-1.11-0.73-1.76-0.73v2.5h-2.5v103.74h-31.05v-101.24h33.55v-2.5h-2.5 2.5" fill="#0a0a09"/></g>
  <g id="change1_5"><path d="m114.43 328.48c-1.38 0-2.5-1.11-2.5-2.5v-7.2c0-1.39 1.12-2.5 2.5-2.5h208.62c1.38 0 2.5 1.11 2.5 2.5v7.2c0 1.39-1.12 2.5-2.5 2.5h-208.62" fill="#8c7eb4"/></g>
  <g id="change2_5"><path d="m323.05 313.78h-208.62c-2.77 0-5 2.24-5 5v7.2c0 2.77 2.23 5 5 5h208.62c2.76 0 5-2.23 5-5v-7.2c0-2.76-2.24-5-5-5zm0 5v7.2h-208.62v-7.2h208.62" fill="#0a0a09"/></g>
  <g id="change1_6"><path d="m214.62 176.57l-3.6-4.19-3.6-4.18s-13.28-2.22-19.21 5.22c-5.94 7.44-6.92 24.52-6.92 24.52s17.05 1.59 25.28-3.16c8.24-4.75 8.05-18.21 8.05-18.21" fill="#8c7eb4"/></g>
  <g id="change2_6"><path d="m214.62 176.57l1.9-1.63-3.6-4.19-3.6-4.18c-0.39-0.45-0.91-0.75-1.49-0.84-0.1-0.02-2.06-0.34-4.88-0.34-2.37 0-5.34 0.22-8.35 1.12-1.5 0.45-3.01 1.07-4.44 1.94s-2.78 1.99-3.91 3.41c-1.75 2.2-3 4.89-3.98 7.7-1.48 4.22-2.33 8.73-2.83 12.23-0.5 3.49-0.64 5.96-0.65 6.01-0.08 1.34 0.93 2.51 2.27 2.63 0.05 0.01 2.85 0.27 6.77 0.27 2.94 0 6.49-0.15 10.02-0.67 3.54-0.53 7.05-1.41 9.97-3.08 2.4-1.39 4.17-3.36 5.46-5.45 1.93-3.16 2.85-6.61 3.33-9.41 0.48-2.79 0.51-4.93 0.51-5.45v-0.03l-1.41-0.02 1.41 0.02-1.41-0.02 1.41 0.02c0.01-0.62-0.2-1.2-0.6-1.67l-1.9 1.63-2.5-0.05v0.12c0 0.42-0.05 3.65-0.99 7.14-0.47 1.74-1.15 3.54-2.11 5.1s-2.16 2.85-3.7 3.73c-2.02 1.18-5.02 2.01-8.2 2.48s-6.53 0.61-9.29 0.61c-1.85 0-3.44-0.06-4.56-0.13-0.56-0.03-1-0.06-1.31-0.08-0.15-0.01-0.26-0.02-0.34-0.03h-0.08l-0.02-0.01-0.23 2.49 2.5 0.15v-0.04c0.02-0.43 0.31-4.67 1.28-9.59 0.48-2.46 1.14-5.09 2-7.48 0.84-2.39 1.91-4.53 3.09-6 0.73-0.91 1.6-1.65 2.6-2.26 1.49-0.9 3.26-1.5 5.05-1.86 1.8-0.36 3.61-0.47 5.14-0.47 1.21 0 2.25 0.07 2.98 0.14 0.36 0.04 0.64 0.07 0.83 0.09 0.09 0.02 0.16 0.03 0.2 0.03l0.05 0.01h0.01l0.15-0.96-0.16 0.96h0.01l0.15-0.96-0.16 0.96 0.41-2.46-1.89 1.62 3.59 4.19 3.6 4.19 1.9-1.63-2.5-0.05 2.5 0.05" fill="#0a0a09"/></g>
  <g id="change1_7"><path d="m215.34 185.75c-0.67-0.05-1.28-0.36-1.72-0.86l-14.58-16.96c-0.9-1.04-0.78-2.62 0.27-3.52l5.58-4.8c0.46-0.4 1.04-0.61 1.63-0.61l0.19 0.01c0.66 0.05 1.27 0.36 1.71 0.86l14.58 16.96c0.9 1.05 0.78 2.63-0.27 3.53l-5.58 4.8c-0.45 0.39-1.03 0.6-1.63 0.6l-0.18-0.01" fill="#8c7eb4"/></g>
  <g id="change2_7"><path d="m206.52 156.5c-1.19 0-2.35 0.43-3.26 1.21l-5.58 4.8c-2.09 1.8-2.33 4.96-0.53 7.05l14.58 16.96c0.87 1 2.09 1.62 3.41 1.73 0.13 0 0.25 0.01 0.38 0.01 1.19 0 2.35-0.42 3.26-1.21l5.58-4.8c2.09-1.8 2.33-4.95 0.53-7.05l-14.58-16.96c-0.86-1.01-2.09-1.63-3.42-1.72-0.12-0.01-0.25-0.02-0.37-0.02zm0 5l14.58 16.96-5.58 4.8-14.58-16.96 5.58-4.8" fill="#0a0a09"/></g>
  <g id="change1_8"><path d="m231.68 186.04c-0.71 0-1.41-0.3-1.9-0.87l-27.4-31.88c-0.83-0.95-0.81-2.38 0.05-3.31 1.99-2.18 49.18-53.265 83.69-53.265 3.72 0 7.21 0.597 10.38 1.781 0.8 0.301 1.39 0.988 1.57 1.824 7.57 36.12-62.03 83.3-65 85.3-0.43 0.28-0.91 0.42-1.39 0.42" fill="#8c7eb4"/></g>
  <g id="change2_8"><path d="m286.12 94.215c-35.6 0-83.51 51.865-85.54 54.075-1.71 1.86-1.75 4.71-0.1 6.64l27.41 31.87c0.98 1.14 2.38 1.74 3.79 1.74 0.96 0 1.93-0.27 2.78-0.85 0.74-0.49 18.38-12.39 35.4-28.82 23.75-22.93 34.07-42.8 30.66-59.058-0.36-1.679-1.54-3.058-3.15-3.66-3.44-1.285-7.23-1.937-11.25-1.937zm0 5c3.32 0 6.52 0.508 9.5 1.625 7.31 34.88-63.94 82.7-63.94 82.7l-13.7-15.93-13.71-15.95s48.05-52.445 81.85-52.445" fill="#0a0a09"/></g>
  <g id="change1_9"><path d="m289.02 130.46c-0.49 0-0.97-0.14-1.38-0.41-4.47-2.95-8.88-6.89-12.75-11.39-3.86-4.5-7.09-9.44-9.34-14.3-0.29-0.62-0.31-1.34-0.06-1.97 0.25-0.64 0.75-1.14 1.39-1.4 7.02-2.838 13.5-4.271 19.25-4.271 3.72 0 7.21 0.597 10.37 1.777 0.8 0.301 1.39 0.988 1.57 1.824 1.77 8.45-0.55 18.18-6.91 28.91-0.34 0.59-0.92 1.02-1.58 1.17-0.19 0.04-0.38 0.06-0.56 0.06" fill="#8c7eb4"/></g>
  <g id="change2_9"><path d="m286.13 94.219c-6.08 0-12.87 1.496-20.19 4.453-1.27 0.516-2.27 1.528-2.78 2.798-0.5 1.27-0.46 2.69 0.12 3.94 2.34 5.07 5.7 10.21 9.72 14.88s8.6 8.77 13.26 11.85c0.83 0.54 1.79 0.82 2.76 0.82 0.37 0 0.75-0.04 1.12-0.12 1.33-0.31 2.48-1.15 3.18-2.33 6.68-11.29 9.1-21.62 7.2-30.698-0.36-1.679-1.54-3.058-3.15-3.66-3.44-1.285-7.23-1.933-11.24-1.933zm0 5c3.32 0 6.51 0.508 9.49 1.621 1.8 8.56-1.15 17.9-6.6 27.12-4.16-2.74-8.37-6.43-12.23-10.93-3.86-4.49-6.89-9.21-8.98-13.72 6.32-2.55 12.53-4.091 18.32-4.091" fill="#0a0a09"/></g>
  <g id="change1_10"><path d="m227.34 188.32l-28.45-33.09 6.66-5.72 28.45 33.1-6.66 5.71" fill="#8c7eb4"/></g>
  <g id="change2_10"><path d="m227.34 188.32l1.9-1.62-26.83-31.2 2.87-2.46 25.19 29.3-4.76 4.09 1.63 1.89 1.9-1.62-1.9 1.62 1.63 1.9 6.65-5.72c0.51-0.44 0.82-1.04 0.87-1.71s-0.16-1.31-0.6-1.82l-28.45-33.09c-0.9-1.04-2.48-1.17-3.53-0.26l-6.65 5.72c-1.05 0.9-1.17 2.48-0.26 3.52l28.45 33.09c0.9 1.05 2.48 1.17 3.52 0.27l-1.63-1.9" fill="#0a0a09"/></g>
  <g id="change1_11"><path d="m266.76 134.73c-3.26 2.8-8.18 2.43-10.98-0.83s-2.43-8.18 0.83-10.98 8.17-2.44 10.98 0.83c2.8 3.26 2.43 8.18-0.83 10.98" fill="#8c7eb4"/></g>
  <g id="change2_11"><path d="m266.76 134.73l-1.63-1.9c-1.01 0.86-2.22 1.28-3.44 1.28-1.5 0-2.97-0.62-4.01-1.84-0.87-1.01-1.28-2.22-1.29-3.44 0.01-1.5 0.63-2.96 1.84-4.01 1.01-0.87 2.22-1.28 3.45-1.28 1.5 0 2.96 0.62 4.01 1.84 0.86 1 1.27 2.21 1.27 3.44 0 1.5-0.61 2.96-1.83 4.01l3.26 3.79c2.36-2.03 3.58-4.92 3.57-7.8 0.01-2.37-0.82-4.77-2.48-6.7-2.03-2.36-4.92-3.58-7.8-3.58-2.37 0-4.77 0.82-6.7 2.48-2.37 2.03-3.59 4.92-3.59 7.81 0 2.37 0.83 4.77 2.49 6.7 2.03 2.36 4.92 3.58 7.81 3.58 2.36 0 4.76-0.82 6.7-2.49l-1.63-1.89" fill="#0a0a09"/></g>
  <g id="change1_12"><path d="m232.76 128.19l-16.53 14.21s-10.29-4.59-25.44 7.32l-2.59-3.01s23.1-34.8 44.56-18.52" fill="#8c7eb4"/></g>
  <g id="change2_12"><path d="m232.76 128.19l-1.63-1.9-16.53 14.21 1.63 1.9 1.02-2.28c-0.25-0.11-2.55-1.09-6.43-1.09-2.51 0-5.68 0.42-9.33 1.72s-7.78 3.49-12.25 7l1.55 1.97 1.89-1.63-2.58-3.01-1.9 1.63 2.09 1.38c0.17-0.26 3.95-5.85 9.65-11.27 2.85-2.7 6.17-5.36 9.7-7.3 3.53-1.95 7.24-3.17 10.91-3.16 3.5 0.01 7.01 1.04 10.7 3.82l1.51-1.99-1.63-1.9 1.63 1.9 1.51-1.99c-4.45-3.39-9.18-4.86-13.72-4.84-4.86 0-9.43 1.6-13.52 3.88-6.14 3.44-11.3 8.44-14.99 12.58-3.68 4.14-5.88 7.44-5.92 7.51-0.62 0.93-0.54 2.16 0.18 3.01l2.59 3.01c0.87 1.01 2.39 1.16 3.44 0.33 4.09-3.21 7.73-5.11 10.84-6.22s5.69-1.43 7.65-1.43c1.52 0 2.68 0.19 3.43 0.37 0.37 0.09 0.64 0.17 0.81 0.23l0.16 0.06 0.02 0.01 0.51-1.22-0.54 1.2 0.03 0.02 0.51-1.22-0.54 1.2c0.88 0.4 1.92 0.25 2.65-0.38l16.53-14.22c0.57-0.49 0.89-1.21 0.87-1.97-0.03-0.76-0.38-1.46-0.99-1.91l-1.51 1.99" fill="#0a0a09"/></g>
  <g id="change1_13"><path d="m260.12 157.84l-16.53 14.21s3 10.87-11.04 24.06l2.58 3.01s37.87-17.62 24.99-41.28" fill="#8c7eb4"/></g>
  <g id="change2_13"><path d="m260.12 157.84l-1.63-1.89-16.53 14.21c-0.73 0.63-1.03 1.63-0.78 2.56l1.62-0.45-1.62 0.43v0.02l1.62-0.45-1.62 0.43 0.15-0.04-0.15 0.03v0.01l0.15-0.04-0.15 0.03c0.01 0.04 0.18 0.77 0.18 2.05 0 1.71-0.31 4.38-1.76 7.73-1.46 3.35-4.06 7.41-8.77 11.82-0.97 0.92-1.05 2.44-0.18 3.46l2.58 3c0.73 0.85 1.94 1.11 2.95 0.64 0.11-0.05 7.16-3.33 14.34-9.07 3.59-2.87 7.22-6.36 10.02-10.46 2.78-4.09 4.75-8.86 4.75-14.13 0.01-3.57-0.92-7.32-2.97-11.08-0.36-0.67-1-1.13-1.75-1.26-0.74-0.14-1.5 0.06-2.08 0.56l1.63 1.89-2.19 1.2c1.68 3.11 2.36 5.98 2.36 8.69 0 4-1.49 7.78-3.89 11.31-3.58 5.29-9.19 9.82-13.9 12.95-2.36 1.57-4.48 2.8-6.01 3.62-0.76 0.42-1.38 0.73-1.79 0.94-0.22 0.11-0.38 0.18-0.48 0.24l-0.11 0.05-0.03 0.01-0.01 0.01 1.06 2.26 1.89-1.63-2.58-3.01-1.89 1.63 1.71 1.83c5.14-4.83 8.19-9.46 9.93-13.48 1.74-4.01 2.17-7.41 2.17-9.72 0-1.97-0.31-3.17-0.36-3.35l-2.41 0.66 1.63 1.9 16.53-14.21-1.63-1.9-2.19 1.2 2.19-1.2" fill="#0a0a09"/></g>
  <g id="change2_14"><path d="m170.96 190.83l-70.53 66.85c-0.934 0.89-1.039 2.34-0.24 3.36 0.79 1.01 2.23 1.26 3.31 0.56l79.14-50.76c1.16-0.75 1.5-2.29 0.75-3.46-0.74-1.16-2.29-1.5-3.45-0.75l-56.85 36.46 51.31-48.63c1.01-0.95 1.05-2.53 0.1-3.53s-2.54-1.05-3.54-0.1" fill="#0a0a09"/></g>
 </g>
</svg>