<?xml version="1.0" encoding="UTF-8" standalone="no"?><svg xmlns="http://www.w3.org/2000/svg" xmlns:xlink="http://www.w3.org/1999/xlink" fill="#000000" height="382.6" preserveAspectRatio="xMidYMid meet" version="1" viewBox="-2.5 -2.8 417.6 382.6" width="417.6" zoomAndPan="magnify"><g id="change1_1"><path d="M2.5,207.6c12.6,26,25.2,52,37.8,78c12.6,26,26.1,51.6,38,77.8c3.9,8.7,14.1,13.9,23,15.1 c9.6,1.3,19.6-1.4,26.5-8.7c30.8-32.3,60-66.5,88.9-100.6c29-34.3,58.5-68.2,87.8-102.2c18-20.8,35.7-41.9,52.5-63.7 c-1.7,2.2-3.4,4.4-5.1,6.6c9.3-12.1,18.8-24.1,28.2-36.1c10.3-13,19.8-26.7,29.5-40.2c5.5-7.6,3.3-20.7-3.5-26.9 c-6.7-6.1-19-9.5-26.9-3.5c-12.6,9.6-25.6,19-37.6,29.4c-10.5,9.2-21,18.4-31.4,27.6c-21.3,18.9-41.2,39.2-60.6,60 c-38.3,41.1-75.6,83.5-110.1,128c-11.2,14.4-22.3,28.8-33.2,43.3c-9.9,13.1-19.1,26.4-28,40.2c18.1,0,36.3,0,54.4,0 c-16.5-23.6-31.5-48.4-47.3-72.4C69.6,235,53.8,210.9,38,186.8c-5.9-9-18.4-13.6-28.1-7.4C0,185.9-2.5,197.2,2.5,207.6L2.5,207.6z" fill="#c7b3fc"/></g></svg>